# xmcd
#
# Track frame offsets: 
#        150
#        20196
#        37139
#        49180
#        65231
#        80183
#        102596
#        114484
#        132873
#        150296
#        176043
#
# Disc length: 2489 seconds
#
# Revision: 2
# Processed by: cddbd v1.5.2PL0 Copyright (c) Steve Scherf et al.
# Submitted via: ExactAudioCopy v1.0b1
#
DISCID=a009b70b
DTITLE=David Allan Coe - Recommended for Airplay
DYEAR=1999
DGENRE=Country
TTITLE0=Song For The Year 2000
TTITLE1=The Price We'll Have To Pay
TTITLE2=A Harley Someday
TTITLE3=Drink My Wife Away
TTITLE4=She's Already Gone
TTITLE5=Mississippi
TTITLE6=Drink Canada Dry
TTITLE7=Let Me Be The One You Turn To
TTITLE8=In My Life
TTITLE9=We Can Talk
TTITLE10=Sweet Rebecca
EXTD=
EXTT0=
EXTT1=
EXTT2=
EXTT3=
EXTT4=
EXTT5=
EXTT6=
EXTT7=
EXTT8=
EXTT9=
EXTT10=
PLAYORDER=
